<svg xmlns="http://www.w3.org/2000/svg" xmlns:xlink="http://www.w3.org/1999/xlink" version="1.1" x="0px" y="0px" viewBox="0 0 96 120" enable-background="new 0 0 96 96" xml:space="preserve" fill="rgb(63,128,211)"><polygon points="61.919,75.168 64.673,69.788 66.183,66.838 65.515,66.497 64.848,66.155 59.466,76.668 62.912,76.668   64.289,76.668 61.535,82.048 60.025,84.999 60.692,85.34 61.36,85.682 66.742,75.168 63.296,75.168 "/><path d="M65.981,48.927c3.462-6.8,0.176-16.519-3.264-21.248c-5.06-6.958,2.842-21.673,2.922-21.821l0.743-1.365l-1.53,0.268  c-6.035,1.055-10.396,3.485-12.965,7.224c-1.858,2.706-2.388,5.536-2.482,7.566L38.135,2.359l1.482,4.94  c1.929,6.429,5.801,23.907,0.625,27.529c-1.068,0.748-1.85,0.82-2.542,0.103c-2.255-2.333-2.465-11.126-2.356-14.317l0.123-3.596  l-1.549,3.247c-5.878,12.317-6.949,21.752-3.182,28.043c2.11,3.524,5.429,5.538,8.753,6.689H17.565v10.768h9.847V91.25h35.691h5.486  v-1.032c5.749-2.213,9.847-7.78,9.847-14.3c0-3.896-1.473-7.446-3.875-10.153h3.875V54.997H58.946  C62.203,53.748,64.559,51.722,65.981,48.927z M32.024,47.538c-3.176-5.303-2.56-13.191,1.823-23.474  c0.112,3.856,0.646,9.706,2.775,11.91c1.187,1.229,2.772,1.281,4.481,0.084c5.285-3.699,2.854-17.466,1.133-24.706l9.514,14.513  l-0.719-3.731c-0.01-0.049-0.909-4.945,2.105-9.317c2.121-3.075,5.641-5.184,10.478-6.279c-1.935,4.012-6.799,15.575-2.11,22.023  c3.215,4.421,6.315,13.451,3.141,19.686c-2.279,4.475-7.382,6.745-15.169,6.75c-0.009,0-0.018,0-0.026,0c-0.007,0-0.014,0-0.021,0  c-0.636,0-1.29-0.015-1.969-0.046C43.236,54.754,35.613,53.53,32.024,47.538z M28.912,89.75V65.765h22.735  c-2.402,2.708-3.875,6.257-3.875,10.153c0,6.101,3.591,11.365,8.762,13.832H28.912z M76.936,75.918  c0,5.678-3.442,10.563-8.347,12.692c-0.245,0.106-0.498,0.195-0.75,0.287c-0.249,0.091-0.495,0.185-0.75,0.262  c-1.263,0.381-2.6,0.591-3.986,0.591c-7.626,0-13.831-6.205-13.831-13.832c0-4.015,1.73-7.625,4.471-10.153  c0.284-0.262,0.576-0.513,0.88-0.75c0.342-0.266,0.694-0.516,1.061-0.75c2.146-1.372,4.688-2.178,7.419-2.178  c2.731,0,5.273,0.806,7.42,2.178c0.366,0.234,0.719,0.484,1.061,0.75c0.305,0.237,0.597,0.488,0.88,0.75  C75.206,68.293,76.936,71.903,76.936,75.918z M76.936,56.497v7.768H73.04c-2.679-2.288-6.146-3.678-9.937-3.678  c-3.791,0-7.257,1.39-9.936,3.678H27.412h-8.347v-7.768h30.364c0.007,0,0.014,0,0.021,0c0.009,0,0.017,0,0.025,0H76.936z"/></svg>