<svg xmlns="http://www.w3.org/2000/svg" xmlns:xlink="http://www.w3.org/1999/xlink" version="1.1" x="0px" y="0px" viewBox="0 0 100 125" style="enable-background:new 0 0 100 100;" xml:space="preserve" fill="rgb(63,128,211)"><path d="M51.488,58.76c-0.554-0.192-1.038-0.384-1.488-0.565c-1.95-0.832-2.862-1.632-2.862-3.072c0-1.376,1.015-2.549,2.86-2.848  h2.193c1.54,0.201,2.743,0.736,3.462,1.162l1.038-2.837c-1.035-0.583-2.59-1.096-4.385-1.268V45h-4.615v4.819  c-2.864,0.972-4.535,3.176-4.535,5.752c0,2.571,1.95,4.693,6.058,6.069c0.277,0.096,0.542,0.192,0.785,0.288  c2.492,0.971,3.473,1.963,3.473,3.659c0,1.579-1.119,2.869-3.473,3.147h-1.886c-1.779-0.185-3.522-0.858-4.576-1.504L42.5,70.205  c1.334,0.736,3.167,1.253,5.192,1.408V77h4.615v-5.77c3.32-0.881,5.192-3.105,5.192-5.995C57.5,62.045,55.469,60.179,51.488,58.76z"/><path d="M75.226,55.812C69.304,49,62.057,40.649,59.912,31.882c2.616-0.539,4.588-2.859,4.588-5.632c0-3.019-2.34-5.497-5.301-5.727  c-0.317-2.819-0.321-9.072,4.715-14.109c0.572-0.572,0.743-1.432,0.434-2.18C64.038,3.487,63.309,3,62.5,3  C62.106,3,54.216,3.071,50,8.353C45.785,3.071,37.894,3,37.5,3c-0.809,0-1.538,0.487-1.848,1.234  c-0.31,0.748-0.139,1.607,0.434,2.18c5.039,5.039,5.032,11.294,4.715,14.109c-2.961,0.23-5.301,2.708-5.301,5.727  c0,2.773,1.972,5.093,4.588,5.632C37.943,40.649,30.695,49,24.774,55.812c-1.577,1.813-3.066,3.527-4.371,5.142  c-3.162,3.913-4.903,8.849-4.903,13.897C15.5,87.063,25.436,97,37.649,97h24.701C74.563,97,84.5,87.063,84.5,74.851  c0-5.048-1.741-9.983-4.903-13.897C78.293,59.339,76.803,57.625,75.226,55.812z M48.103,13.133C48.375,13.949,49.139,14.5,50,14.5  s1.625-0.551,1.897-1.367c0.989-2.968,3.559-4.499,5.921-5.29c-2.768,4.829-2.891,9.78-2.638,12.657H44.819  c0.253-2.877,0.129-7.828-2.637-12.657C44.544,8.634,47.114,10.165,48.103,13.133z M39.5,26.25c0-0.965,0.785-1.75,1.75-1.75h1.25  h15h1.25c0.965,0,1.75,0.785,1.75,1.75S59.715,28,58.75,28H57.5h-15h-1.25C40.285,28,39.5,27.215,39.5,26.25z M62.351,93H37.649  C27.642,93,19.5,84.858,19.5,74.851c0-4.137,1.426-8.18,4.015-11.384c1.259-1.559,2.726-3.245,4.278-5.031  c6.39-7.35,14.258-16.399,16.382-26.436h11.65c2.124,10.036,9.992,19.086,16.382,26.436c1.553,1.786,3.02,3.473,4.278,5.031  c2.589,3.204,4.015,7.247,4.015,11.384C80.5,84.858,72.358,93,62.351,93z"/></svg>