<svg xmlns:dc="http://purl.org/dc/elements/1.1/" xmlns:cc="http://creativecommons.org/ns#" xmlns:rdf="http://www.w3.org/1999/02/22-rdf-syntax-ns#" xmlns:svg="http://www.w3.org/2000/svg" xmlns="http://www.w3.org/2000/svg" xmlns:sodipodi="http://sodipodi.sourceforge.net/DTD/sodipodi-0.dtd" xmlns:inkscape="http://www.inkscape.org/namespaces/inkscape" version="1.1" x="0px" y="0px" viewBox="0 0 100 125" fill="rgb(63,128,211)"><g transform="translate(0,-952.36218)"><path style="text-indent:0;text-transform:none;direction:ltr;block-progression:tb;baseline-shift:baseline;color:#000000;enable-background:accumulate;" d="M 20.001416,959.36601 C 14.489633,959.36601 10,963.85482 10,969.36558 c 0,5.51074 4.489633,9.99955 10.001416,9.99955 5.511782,0 10.001415,-4.48881 10.001415,-9.99955 0,-5.51076 -4.489633,-9.99957 -10.001415,-9.99957 z m 0,1.99992 c 4.430746,0 8.001133,3.56972 8.001133,7.99965 0,4.42992 -3.570387,7.99964 -8.001133,7.99964 -4.430751,0 -8.001133,-3.56972 -8.001133,-7.99964 0,-4.42993 3.570382,-7.99965 8.001133,-7.99965 z m 5.813323,24.99889 c -0.341048,0.0682 -0.637272,0.32729 -0.750107,0.65621 l -15.002123,40.99817 c -0.2199672,0.601 0.297517,1.3426 0.937632,1.3437 l 37.005239,0 0,13.9994 c -3.721784,0 -7.483651,0 -11.189084,0 -0.523704,0.049 -0.955554,0.5701 -0.906457,1.0937 0.0491,0.5236 0.570288,0.9553 1.093984,0.9062 l 24.003397,0 c 0.528364,0.01 1.014315,-0.4716 1.014315,-0.9999 0,-0.5284 -0.485951,-1.0074 -1.014315,-1 l -11.001557,0 0,-13.9994 37.005238,0 c 0.640116,0 1.157599,-0.7427 0.937633,-1.3437 L 72.94641,987.02103 c -0.139646,-0.38133 -0.531474,-0.65555 -0.937633,-0.65621 l -46.006511,0 c -0.06233,-0.006 -0.125202,-0.006 -0.187527,0 z m 0.875124,1.99991 13.28313,0 -1.687739,10.99951 -15.627212,0 z m 15.314667,0 16.002266,0 c 0.515221,3.65656 1.098689,7.33768 1.656484,10.99951 l -19.315235,0 c 0.538279,-3.66351 1.154885,-7.34267 1.656485,-10.99951 z m 18.033803,0 11.282847,0 4.031821,10.99951 -13.626929,0 z m -22.065623,12.99937 -1.844011,11.9995 -18.565128,0 4.375619,-11.9682 c 5.32318,-0.065 10.693921,-0.031 16.03352,-0.031 z m 2.062792,0 19.940322,0 1.844011,11.9995 -23.628345,0 z m 22.003114,0 c 4.676287,0 9.361399,0 14.033235,0 l 4.375619,11.9995 -16.564845,0 z m -26.222462,13.9994 c -0.587425,3.9956 -1.271181,8.0125 -1.812757,11.9995 l -21.565552,0 4.375619,-11.9682 c 6.315174,-0.067 12.673062,-0.031 19.00269,-0.031 z m 2.062793,0 24.253432,0 1.844011,11.9995 -27.941455,0 z m 26.316224,0 c 5.660783,0 11.357486,0 17.002407,0 l 4.375619,11.9995 -19.565269,0 c -0.557091,-3.9871 -1.201463,-8.0058 -1.812757,-11.9995 z" fill="#000000" fill-opacity="1" stroke="none" marker="none" visibility="visible" display="inline" overflow="visible"/></g></svg>