<svg xmlns="http://www.w3.org/2000/svg" xmlns:xlink="http://www.w3.org/1999/xlink" version="1.1" x="0px" y="0px" viewBox="0 0 60 75" style="enable-background:new 0 0 60 60;" xml:space="preserve" fill="rgb(63,128,211)"><path d="M30,45.0888672c8.3198242,0,15.0888672-6.769043,15.0888672-15.0888672S38.3198242,14.9111328,30,14.9111328  S14.9111328,21.6801758,14.9111328,30S21.6801758,45.0888672,30,45.0888672z M30,16.9111328  c7.2172852,0,13.0888672,5.871582,13.0888672,13.0888672S37.2172852,43.0888672,30,43.0888672S16.9111328,37.2172852,16.9111328,30  S22.7827148,16.9111328,30,16.9111328z"/><rect x="29" y="6" width="2" height="4.8583984"/><rect x="29" y="49.1416016" width="2" height="4.8583984"/><rect x="49.1416016" y="29" width="4.8583984" height="2"/><rect x="6" y="29" width="4.8583984" height="2"/><rect x="42.8236313" y="13.7471771" transform="matrix(0.7071068 -0.7071068 0.7071068 0.7071068 2.8265228 36.3179703)" width="4.8585968" height="1.9997864"/><rect x="12.3177719" y="44.2530365" transform="matrix(0.7071068 -0.7071068 0.7071068 0.7071068 -27.6793365 23.6820297)" width="4.8585968" height="1.9997864"/><rect x="44.2530365" y="42.8236313" transform="matrix(0.7071068 -0.7071068 0.7071068 0.7071068 -18.7443771 45.2529297)" width="1.9997864" height="4.8585968"/><rect x="13.7471771" y="12.3177719" transform="matrix(0.7071068 -0.7071068 0.7071068 0.7071068 -6.1084366 14.7470703)" width="1.9997864" height="4.8585968"/></svg>