<svg xmlns="http://www.w3.org/2000/svg" xmlns:xlink="http://www.w3.org/1999/xlink" version="1.1" x="0px" y="0px" viewBox="0 0 90 112.5" enable-background="new 0 0 90 90" xml:space="preserve"><g><g><g><path fill="rgb(63,128,211)" d="M44.6,80.1c-4.8,0-9-0.2-11.8-0.6c-4.6-0.7-7.9-3.6-8.4-7.4l-0.1-0.5l0.5,0.1c6.7,1,13.5,1.5,20.2,1.5     c6.7,0,13.5-0.5,20.2-1.5l0.5-0.1l-0.1,0.5c-0.6,3.9-3.9,6.9-8.4,7.4C54.3,79.9,49.5,80.1,44.6,80.1z M25.3,72.5     c0.7,3.3,3.7,5.7,7.7,6.3c2.7,0.4,6.9,0.6,11.7,0.6c4.9,0,9.6-0.2,12.6-0.6c3.9-0.5,7-3,7.7-6.3c-6.6,1-13.2,1.5-19.8,1.5     C38.5,74,31.8,73.5,25.3,72.5z"/></g><path fill="rgb(63,128,211)" d="M55.6,79.7c-1.2,1.2-3.2,1.9-5.3,1.9h-9.1c-2.1,0-4.1-0.7-5.3-1.9c-0.4,0-0.8-0.1-1.2-0.1    c1.3,1.7,3.7,2.8,6.4,2.8h9.1c2.8,0,5.2-1.1,6.5-2.8C56.4,79.6,56,79.7,55.6,79.7z"/><g><path fill="rgb(63,128,211)" d="M24.4,16l0.1-0.5c0.6-3.3,3.3-5.7,8.3-7.2c2.5-0.8,6.5-1.2,11.3-1.2c5,0,10,0.5,13.3,1.2     c2,0.5,3.8,1.3,5.3,2.4c1.7,1.3,2.8,3,3.1,4.8l0.1,0.5L65.3,16c-6.7-0.7-13.5-1.1-20.2-1.1c-6.7,0-13.5,0.4-20.2,1.1L24.4,16z      M44.1,7.8C39.4,7.8,35.5,8.2,33,9c-4.5,1.4-7,3.4-7.7,6.1c6.6-0.7,13.2-1,19.8-1c6.6,0,13.2,0.3,19.8,1     c-0.9-3.4-4.6-5.4-7.7-6.1C54,8.3,49,7.8,44.1,7.8z"/></g><g><path fill="rgb(63,128,211)" d="M24.4,72.1c-0.1-0.4-0.1-0.8-0.1-1.1V15.8h0.8V71c0,0.3,0,0.6,0.1,1L24.4,72.1z"/></g><g><path fill="rgb(63,128,211)" stroke="#231F20" stroke-width="5" stroke-miterlimit="10" d="M45.1,14.6"/></g><g><rect x="65.1" y="15.6" fill="rgb(63,128,211)" width="0.8" height="56.3"/></g><g><path fill="rgb(63,128,211)" stroke="#231F20" stroke-width="5" stroke-miterlimit="10" d="M45.1,73"/></g><g><path fill="rgb(63,128,211)" d="M65.4,15.7c0-0.2,0-0.4-0.1-0.6C58.6,14.4,51.8,14,45.1,14c-6.8,0-13.5,0.4-20.3,1.1     c0,0.2-0.1,0.4-0.1,0.6c6.8-0.7,13.5-1.1,20.3-1.1C51.9,14.6,58.7,15,65.4,15.7z"/></g><g><g><defs><path id="b" d="M24.8,15.7C24.8,15.7,24.8,15.7,24.8,15.7c0-0.2,0-0.4,0.1-0.6C24.8,15.3,24.8,15.5,24.8,15.7z"/></defs><clipPath id="a"><use xlink:href="#b" overflow="visible"/></clipPath><path clip-path="url(#a)" fill="rgb(63,128,211)" d="M24.8,15.1v0.6V15.1z"/><rect x="24.8" y="15.1" clip-path="url(#a)" fill="rgb(63,128,211)" width="0" height="0.6"/><rect x="24.8" y="15.1" clip-path="url(#a)" fill="rgb(63,128,211)" width="0" height="0.6"/><rect x="24.8" y="15.1" clip-path="url(#a)" fill="rgb(63,128,211)" width="0" height="0.6"/><rect x="24.8" y="15.1" clip-path="url(#a)" fill="rgb(63,128,211)" width="0" height="0.6"/><path clip-path="url(#a)" fill="rgb(63,128,211)" d="M24.8,15.1v0.6V15.1z"/><rect x="24.8" y="15.1" clip-path="url(#a)" fill="rgb(63,128,211)" width="0" height="0.6"/><rect x="24.8" y="15.1" clip-path="url(#a)" fill="rgb(63,128,211)" width="0" height="0.6"/><rect x="24.8" y="15.1" clip-path="url(#a)" fill="rgb(63,128,211)" width="0" height="0.6"/><rect x="24.8" y="15.1" clip-path="url(#a)" fill="rgb(63,128,211)" width="0" height="0.6"/><rect x="24.8" y="15.1" clip-path="url(#a)" fill="rgb(63,128,211)" width="0" height="0.6"/><rect x="24.8" y="15.1" clip-path="url(#a)" fill="rgb(63,128,211)" width="0" height="0.6"/><path clip-path="url(#a)" fill="rgb(63,128,211)" d="M24.8,15.1v0.6V15.1z"/><rect x="24.8" y="15.1" clip-path="url(#a)" fill="rgb(63,128,211)" width="0" height="0.6"/><path clip-path="url(#a)" fill="rgb(63,128,211)" d="M24.8,15.1v0.6V15.1z"/><rect x="24.8" y="15.1" clip-path="url(#a)" fill="rgb(63,128,211)" width="0" height="0.6"/><rect x="24.8" y="15.1" clip-path="url(#a)" fill="rgb(63,128,211)" width="0" height="0.6"/><rect x="24.8" y="15.1" clip-path="url(#a)" fill="rgb(63,128,211)" width="0" height="0.6"/><rect x="24.8" y="15.1" clip-path="url(#a)" fill="rgb(63,128,211)" width="0" height="0.6"/><rect x="24.8" y="15.1" clip-path="url(#a)" fill="rgb(63,128,211)" width="0" height="0.6"/><rect x="24.8" y="15.1" clip-path="url(#a)" fill="rgb(63,128,211)" width="0" height="0.6"/><path clip-path="url(#a)" fill="rgb(63,128,211)" d="M24.8,15.1v0.6V15.1z"/><rect x="24.8" y="15.1" clip-path="url(#a)" fill="rgb(63,128,211)" width="0" height="0.6"/><rect x="24.8" y="15.1" clip-path="url(#a)" fill="rgb(63,128,211)" width="0" height="0.6"/><rect x="24.8" y="15.1" clip-path="url(#a)" fill="rgb(63,128,211)" width="0" height="0.6"/><rect x="24.8" y="15.1" clip-path="url(#a)" fill="rgb(63,128,211)" width="0" height="0.6"/><rect x="24.8" y="15.1" clip-path="url(#a)" fill="rgb(63,128,211)" width="0" height="0.6"/><rect x="24.8" y="15.1" clip-path="url(#a)" fill="rgb(63,128,211)" width="0" height="0.6"/><path clip-path="url(#a)" fill="rgb(63,128,211)" d="M24.8,15.1v0.6V15.1z"/><rect x="24.8" y="15.1" clip-path="url(#a)" fill="rgb(63,128,211)" width="0" height="0.6"/><path clip-path="url(#a)" fill="rgb(63,128,211)" d="M24.8,15.1v0.6V15.1z"/><rect x="24.8" y="15.1" clip-path="url(#a)" fill="rgb(63,128,211)" width="0" height="0.6"/><rect x="24.8" y="15.1" clip-path="url(#a)" fill="rgb(63,128,211)" width="0" height="0.6"/><rect x="24.8" y="15.1" clip-path="url(#a)" fill="rgb(63,128,211)" width="0" height="0.6"/><rect x="24.8" y="15.1" clip-path="url(#a)" fill="rgb(63,128,211)" width="0" height="0.6"/><rect x="24.8" y="15.1" clip-path="url(#a)" fill="rgb(63,128,211)" width="0" height="0.6"/><rect x="24.8" y="15.1" clip-path="url(#a)" fill="rgb(63,128,211)" width="0" height="0.6"/><rect x="24.8" y="15.1" clip-path="url(#a)" fill="rgb(63,128,211)" width="0" height="0.6"/><rect x="24.8" y="15.1" clip-path="url(#a)" fill="rgb(63,128,211)" width="0" height="0.6"/><rect x="24.8" y="15.1" clip-path="url(#a)" fill="rgb(63,128,211)" width="0" height="0.6"/><rect x="24.8" y="15.1" clip-path="url(#a)" fill="rgb(63,128,211)" width="0" height="0.6"/><rect x="24.8" y="15.1" clip-path="url(#a)" fill="rgb(63,128,211)" width="0" height="0.6"/><rect x="24.8" y="15.1" clip-path="url(#a)" fill="rgb(63,128,211)" width="0" height="0.6"/><rect x="24.8" y="15.1" clip-path="url(#a)" fill="rgb(63,128,211)" width="0" height="0.6"/><rect x="24.8" y="15.1" clip-path="url(#a)" fill="rgb(63,128,211)" width="0" height="0.6"/><rect x="24.8" y="15.1" clip-path="url(#a)" fill="rgb(63,128,211)" width="0" height="0.6"/><rect x="24.8" y="15.1" clip-path="url(#a)" fill="rgb(63,128,211)" width="0" height="0.6"/><rect x="24.8" y="15.1" clip-path="url(#a)" fill="rgb(63,128,211)" width="0" height="0.6"/><rect x="24.8" y="15.1" clip-path="url(#a)" fill="rgb(63,128,211)" width="0" height="0.6"/><rect x="24.8" y="15.1" clip-path="url(#a)" fill="rgb(63,128,211)" width="0" height="0.6"/><rect x="24.8" y="15.1" clip-path="url(#a)" fill="rgb(63,128,211)" width="0" height="0.6"/><rect x="24.8" y="15.1" clip-path="url(#a)" fill="rgb(63,128,211)" width="0" height="0.6"/><rect x="24.8" y="15.1" clip-path="url(#a)" fill="rgb(63,128,211)" width="0" height="0.6"/><path clip-path="url(#a)" fill="rgb(63,128,211)" d="M24.8,15.1v0.6V15.1z"/><path clip-path="url(#a)" fill="rgb(63,128,211)" d="M24.8,15.1v0.6V15.1z"/><path clip-path="url(#a)" fill="rgb(63,128,211)" d="M24.8,15.1v0.6V15.1z"/><rect x="24.8" y="15.1" clip-path="url(#a)" fill="rgb(63,128,211)" width="0" height="0.6"/><path clip-path="url(#a)" fill="rgb(63,128,211)" d="M24.8,15.1v0.6V15.1z"/><rect x="24.8" y="15.1" clip-path="url(#a)" fill="rgb(63,128,211)" width="0" height="0.6"/><path clip-path="url(#a)" fill="rgb(63,128,211)" d="M24.8,15.1v0.6V15.1z"/><path clip-path="url(#a)" fill="rgb(63,128,211)" d="M24.8,15.1v0.6V15.1z"/><rect x="24.8" y="15.1" clip-path="url(#a)" fill="rgb(63,128,211)" width="0" height="0.6"/><path clip-path="url(#a)" fill="rgb(63,128,211)" d="M24.8,15.1v0.6V15.1z"/><rect x="24.8" y="15.1" clip-path="url(#a)" fill="rgb(63,128,211)" width="0" height="0.6"/><path clip-path="url(#a)" fill="rgb(63,128,211)" d="M24.8,15.1v0.6V15.1z"/><path clip-path="url(#a)" fill="rgb(63,128,211)" d="M24.8,15.1v0.6V15.1z"/><rect x="24.8" y="15.1" clip-path="url(#a)" fill="rgb(63,128,211)" width="0" height="0.6"/><path clip-path="url(#a)" fill="rgb(63,128,211)" d="M24.8,15.1v0.6V15.1z"/><rect x="24.8" y="15.1" clip-path="url(#a)" fill="rgb(63,128,211)" width="0" height="0.6"/><path clip-path="url(#a)" fill="rgb(63,128,211)" d="M24.8,15.1v0.6V15.1z"/><path clip-path="url(#a)" fill="rgb(63,128,211)" d="M24.8,15.1v0.6V15.1z"/><path clip-path="url(#a)" fill="rgb(63,128,211)" d="M24.8,15.1v0.6V15.1z"/><rect x="24.8" y="15.1" clip-path="url(#a)" fill="rgb(63,128,211)" width="0" height="0.6"/><path clip-path="url(#a)" fill="rgb(63,128,211)" d="M24.8,15.1v0.6V15.1z"/><rect x="24.8" y="15.1" clip-path="url(#a)" fill="rgb(63,128,211)" width="0" height="0.6"/><path clip-path="url(#a)" fill="rgb(63,128,211)" d="M24.8,15.1v0.6V15.1z"/><path clip-path="url(#a)" fill="rgb(63,128,211)" d="M24.8,15.1v0.6V15.1z"/><rect x="24.8" y="15.1" clip-path="url(#a)" fill="rgb(63,128,211)" width="0" height="0.6"/><path clip-path="url(#a)" fill="rgb(63,128,211)" d="M24.8,15.1v0.6V15.1z"/><rect x="24.8" y="15.1" clip-path="url(#a)" fill="rgb(63,128,211)" width="0" height="0.6"/><path clip-path="url(#a)" fill="rgb(63,128,211)" d="M24.8,15.1v0.6V15.1z"/><path clip-path="url(#a)" fill="rgb(63,128,211)" d="M24.8,15.1v0.6V15.1z"/><rect x="24.8" y="15.1" clip-path="url(#a)" fill="rgb(63,128,211)" width="0" height="0.6"/><path clip-path="url(#a)" fill="rgb(63,128,211)" d="M24.8,15.1v0.6V15.1z"/><rect x="24.8" y="15.1" clip-path="url(#a)" fill="rgb(63,128,211)" width="0" height="0.6"/><path clip-path="url(#a)" fill="rgb(63,128,211)" d="M24.8,15.1v0.6V15.1z"/><path clip-path="url(#a)" fill="rgb(63,128,211)" d="M24.8,15.1v0.6V15.1z"/><rect x="24.8" y="15.1" clip-path="url(#a)" fill="rgb(63,128,211)" width="0" height="0.6"/><path clip-path="url(#a)" fill="rgb(63,128,211)" d="M24.8,15.1v0.6V15.1z"/><rect x="24.8" y="15.1" clip-path="url(#a)" fill="rgb(63,128,211)" width="0" height="0.6"/><path clip-path="url(#a)" fill="rgb(63,128,211)" d="M24.8,15.1v0.6V15.1z"/><path clip-path="url(#a)" fill="rgb(63,128,211)" d="M24.8,15.1v0.6V15.1z"/><path clip-path="url(#a)" fill="rgb(63,128,211)" d="M24.8,15.1v0.6V15.1z"/><rect x="24.8" y="15.1" clip-path="url(#a)" fill="rgb(63,128,211)" width="0" height="0.6"/><path clip-path="url(#a)" fill="rgb(63,128,211)" d="M24.8,15.1v0.6V15.1z"/><rect x="24.8" y="15.1" clip-path="url(#a)" fill="rgb(63,128,211)" width="0" height="0.6"/><path clip-path="url(#a)" fill="rgb(63,128,211)" d="M24.8,15.1v0.6V15.1z"/><path clip-path="url(#a)" fill="rgb(63,128,211)" d="M24.8,15.1v0.6V15.1z"/><rect x="24.8" y="15.1" clip-path="url(#a)" fill="rgb(63,128,211)" width="0" height="0.6"/><path clip-path="url(#a)" fill="rgb(63,128,211)" d="M24.8,15.1v0.6V15.1z"/><rect x="24.8" y="15.1" clip-path="url(#a)" fill="rgb(63,128,211)" width="0" height="0.6"/><path clip-path="url(#a)" fill="rgb(63,128,211)" d="M24.8,15.1v0.6V15.1z"/><path clip-path="url(#a)" fill="rgb(63,128,211)" d="M24.8,15.1v0.6V15.1z"/><rect x="24.8" y="15.1" clip-path="url(#a)" fill="rgb(63,128,211)" width="0" height="0.6"/><path clip-path="url(#a)" fill="rgb(63,128,211)" d="M24.8,15.1v0.6V15.1z"/><rect x="24.8" y="15.1" clip-path="url(#a)" fill="rgb(63,128,211)" width="0" height="0.6"/><path clip-path="url(#a)" fill="rgb(63,128,211)" d="M24.8,15.1v0.6V15.1z"/><path clip-path="url(#a)" fill="rgb(63,128,211)" d="M24.8,15.1v0.6V15.1z"/><rect x="24.8" y="15.1" clip-path="url(#a)" fill="rgb(63,128,211)" width="0" height="0.6"/><path clip-path="url(#a)" fill="rgb(63,128,211)" d="M24.8,15.1v0.6V15.1z"/><rect x="24.8" y="15.1" clip-path="url(#a)" fill="rgb(63,128,211)" width="0" height="0.6"/><path clip-path="url(#a)" fill="rgb(63,128,211)" d="M24.8,15.1v0.6V15.1z"/><path clip-path="url(#a)" fill="rgb(63,128,211)" d="M24.8,15.1v0.6V15.1z"/><path clip-path="url(#a)" fill="rgb(63,128,211)" d="M24.8,15.1v0.6V15.1z"/><rect x="24.8" y="15.1" clip-path="url(#a)" fill="rgb(63,128,211)" width="0" height="0.6"/><path clip-path="url(#a)" fill="rgb(63,128,211)" d="M24.8,15.1v0.6V15.1z"/><rect x="24.8" y="15.1" clip-path="url(#a)" fill="rgb(63,128,211)" width="0" height="0.6"/><path clip-path="url(#a)" fill="rgb(63,128,211)" d="M24.8,15.1v0.6V15.1z"/><path clip-path="url(#a)" fill="rgb(63,128,211)" d="M24.8,15.1v0.6V15.1z"/><rect x="24.8" y="15.1" clip-path="url(#a)" fill="rgb(63,128,211)" width="0" height="0.6"/><path clip-path="url(#a)" fill="rgb(63,128,211)" d="M24.8,15.1v0.6V15.1z"/><rect x="24.8" y="15.1" clip-path="url(#a)" fill="rgb(63,128,211)" width="0" height="0.6"/><path clip-path="url(#a)" fill="rgb(63,128,211)" d="M24.8,15.1v0.6V15.1z"/><path clip-path="url(#a)" fill="rgb(63,128,211)" d="M24.8,15.1v0.6V15.1z"/><rect x="24.8" y="15.1" clip-path="url(#a)" fill="rgb(63,128,211)" width="0" height="0.6"/><path clip-path="url(#a)" fill="rgb(63,128,211)" d="M24.8,15.1v0.6V15.1z"/><rect x="24.8" y="15.1" clip-path="url(#a)" fill="rgb(63,128,211)" width="0" height="0.6"/><path clip-path="url(#a)" fill="rgb(63,128,211)" d="M24.8,15.1v0.6V15.1z"/><path clip-path="url(#a)" fill="rgb(63,128,211)" d="M24.8,15.1v0.6V15.1z"/><rect x="24.8" y="15.1" clip-path="url(#a)" fill="rgb(63,128,211)" width="0" height="0.6"/><path clip-path="url(#a)" fill="rgb(63,128,211)" d="M24.8,15.1v0.6V15.1z"/><rect x="24.8" y="15.1" clip-path="url(#a)" fill="rgb(63,128,211)" width="0" height="0.6"/><path clip-path="url(#a)" fill="rgb(63,128,211)" d="M24.8,15.1v0.6V15.1z"/><path clip-path="url(#a)" fill="rgb(63,128,211)" d="M24.8,15.1v0.6V15.1z"/><path clip-path="url(#a)" fill="rgb(63,128,211)" d="M24.8,15.1v0.6V15.1z"/><rect x="24.8" y="15.1" clip-path="url(#a)" fill="rgb(63,128,211)" width="0" height="0.6"/><path clip-path="url(#a)" fill="rgb(63,128,211)" d="M24.8,15.1v0.6V15.1z"/><rect x="24.8" y="15.1" clip-path="url(#a)" fill="rgb(63,128,211)" width="0" height="0.6"/><path clip-path="url(#a)" fill="rgb(63,128,211)" d="M24.8,15.1v0.6V15.1z"/><path clip-path="url(#a)" fill="rgb(63,128,211)" d="M24.8,15.1v0.6V15.1z"/><rect x="24.8" y="15.1" clip-path="url(#a)" fill="rgb(63,128,211)" width="0" height="0.6"/><path clip-path="url(#a)" fill="rgb(63,128,211)" d="M24.8,15.1v0.6V15.1z"/><rect x="24.8" y="15.1" clip-path="url(#a)" fill="rgb(63,128,211)" width="0" height="0.6"/><path clip-path="url(#a)" fill="rgb(63,128,211)" d="M24.8,15.1v0.6V15.1z"/><path clip-path="url(#a)" fill="rgb(63,128,211)" d="M24.8,15.1v0.6V15.1z"/><rect x="24.8" y="15.1" clip-path="url(#a)" fill="rgb(63,128,211)" width="0" height="0.6"/><path clip-path="url(#a)" fill="rgb(63,128,211)" d="M24.8,15.1v0.6V15.1z"/><rect x="24.8" y="15.1" clip-path="url(#a)" fill="rgb(63,128,211)" width="0" height="0.6"/><path clip-path="url(#a)" fill="rgb(63,128,211)" d="M24.8,15.1v0.6V15.1z"/><path clip-path="url(#a)" fill="rgb(63,128,211)" d="M24.8,15.1v0.6V15.1z"/><rect x="24.8" y="15.1" clip-path="url(#a)" fill="rgb(63,128,211)" width="0" height="0.6"/><path clip-path="url(#a)" fill="rgb(63,128,211)" d="M24.8,15.1v0.6V15.1z"/><rect x="24.8" y="15.1" clip-path="url(#a)" fill="rgb(63,128,211)" width="0" height="0.6"/><path clip-path="url(#a)" fill="rgb(63,128,211)" d="M24.8,15.1v0.6V15.1z"/><rect x="24.8" y="15.1" clip-path="url(#a)" fill="rgb(63,128,211)" width="0" height="0.6"/><path clip-path="url(#a)" fill="rgb(63,128,211)" d="M24.8,15.1v0.6V15.1z"/><rect x="24.8" y="15.1" clip-path="url(#a)" fill="rgb(63,128,211)" width="0" height="0.6"/><path clip-path="url(#a)" fill="rgb(63,128,211)" d="M24.8,15.1v0.6V15.1z"/><path clip-path="url(#a)" fill="rgb(63,128,211)" d="M24.8,15.1v0.6V15.1z"/><rect x="24.8" y="15.1" clip-path="url(#a)" fill="rgb(63,128,211)" width="0" height="0.6"/><rect x="24.8" y="15.1" clip-path="url(#a)" fill="rgb(63,128,211)" width="0" height="0.6"/><path clip-path="url(#a)" fill="rgb(63,128,211)" d="M24.8,15.1v0.6V15.1z"/><path clip-path="url(#a)" fill="rgb(63,128,211)" d="M24.8,15.7v-0.6V15.7z"/><rect x="24.8" y="15.1" clip-path="url(#a)" fill="rgb(63,128,211)" width="0" height="0.6"/><rect x="24.8" y="15.1" clip-path="url(#a)" fill="rgb(63,128,211)" width="0" height="0.6"/><path clip-path="url(#a)" fill="rgb(63,128,211)" d="M24.8,15.1v0.6V15.1z"/><path clip-path="url(#a)" fill="rgb(63,128,211)" d="M24.8,15.1v0.6V15.1z"/><rect x="24.8" y="15.1" clip-path="url(#a)" fill="rgb(63,128,211)" width="0" height="0.6"/><path clip-path="url(#a)" fill="rgb(63,128,211)" d="M24.8,15.1v0.6V15.1z"/><rect x="24.8" y="15.1" clip-path="url(#a)" fill="rgb(63,128,211)" width="0" height="0.6"/><path clip-path="url(#a)" fill="rgb(63,128,211)" d="M24.8,15.1v0.6V15.1z"/><rect x="24.8" y="15.1" clip-path="url(#a)" fill="rgb(63,128,211)" width="0" height="0.6"/><path clip-path="url(#a)" fill="rgb(63,128,211)" d="M24.8,15.1v0.6V15.1z"/><rect x="24.8" y="15.1" clip-path="url(#a)" fill="rgb(63,128,211)" width="0" height="0.6"/><path clip-path="url(#a)" fill="rgb(63,128,211)" d="M24.8,15.1v0.6V15.1z"/><path clip-path="url(#a)" fill="rgb(63,128,211)" d="M24.8,15.1v0.6V15.1z"/><rect x="24.8" y="15.1" clip-path="url(#a)" fill="rgb(63,128,211)" width="0" height="0.6"/><rect x="24.8" y="15.1" clip-path="url(#a)" fill="rgb(63,128,211)" width="0" height="0.6"/><path clip-path="url(#a)" fill="rgb(63,128,211)" d="M24.8,15.1v0.6V15.1z"/><path clip-path="url(#a)" fill="rgb(63,128,211)" d="M24.8,15.1v0.6V15.1z"/><rect x="24.8" y="15.1" clip-path="url(#a)" fill="rgb(63,128,211)" width="0" height="0.6"/><path clip-path="url(#a)" fill="rgb(63,128,211)" d="M24.8,15.1v0.6V15.1z"/><rect x="24.8" y="15.1" clip-path="url(#a)" fill="rgb(63,128,211)" width="0" height="0.6"/><path clip-path="url(#a)" fill="rgb(63,128,211)" d="M24.8,15.1v0.6V15.1z"/><rect x="24.8" y="15.1" clip-path="url(#a)" fill="rgb(63,128,211)" width="0" height="0.6"/><path clip-path="url(#a)" fill="rgb(63,128,211)" d="M24.8,15.1v0.6V15.1z"/><rect x="24.8" y="15.1" clip-path="url(#a)" fill="rgb(63,128,211)" width="0" height="0.6"/><path clip-path="url(#a)" fill="rgb(63,128,211)" d="M24.8,15.1v0.6V15.1z"/><rect x="24.8" y="15.1" clip-path="url(#a)" fill="rgb(63,128,211)" width="0" height="0.6"/><path clip-path="url(#a)" fill="rgb(63,128,211)" d="M24.8,15.1v0.6V15.1z"/><rect x="24.8" y="15.1" clip-path="url(#a)" fill="rgb(63,128,211)" width="0" height="0.6"/><path clip-path="url(#a)" fill="rgb(63,128,211)" d="M24.8,15.1v0.6V15.1z"/><path clip-path="url(#a)" fill="rgb(63,128,211)" d="M24.8,15.1v0.6V15.1z"/><rect x="24.8" y="15.1" clip-path="url(#a)" fill="rgb(63,128,211)" width="0" height="0.6"/><path clip-path="url(#a)" fill="rgb(63,128,211)" d="M24.8,15.7v-0.6V15.7z"/></g></g></g><g><g><path fill="rgb(63,128,211)" d="M50.2,33.2H40.1c-0.6,0-1.1-0.5-1.1-1.1V26c0-0.6,0.5-1.1,1.1-1.1h10.1c0.6,0,1.1,0.5,1.1,1.1v6.1     C51.3,32.8,50.8,33.2,50.2,33.2z M40.1,25.7c-0.2,0-0.4,0.2-0.4,0.4v6.1c0,0.2,0.2,0.4,0.4,0.4h10.1c0.2,0,0.4-0.2,0.4-0.4V26     c0-0.2-0.2-0.4-0.4-0.4H40.1z"/></g><g><path fill="rgb(63,128,211)" d="M49.5,30.7H48c-0.1,0-0.2-0.1-0.2-0.2v-0.2c0-0.1,0.1-0.2,0.2-0.2h1.5c0.1,0,0.2,0.1,0.2,0.2v0.2     C49.7,30.6,49.6,30.7,49.5,30.7L49.5,30.7z M42.3,30.7h-1.5c-0.1,0-0.2-0.1-0.2-0.2v-0.2c0-0.1,0.1-0.2,0.2-0.2h1.5     c0.1,0,0.2,0.1,0.2,0.2v0.2C42.5,30.6,42.4,30.7,42.3,30.7L42.3,30.7z M42.6,29.3C42.6,29.3,42.6,29.3,42.6,29.3l-0.7-0.4     c-0.1,0-0.1-0.1-0.1-0.2l0.1-0.2c0,0,0.1-0.1,0.1-0.1c0,0,0,0,0,0c0,0,0.1,0,0.1,0l0.6,0.3c0,0,0.1,0.1,0.1,0.1c0,0,0,0.1,0,0.1     l-0.1,0.2C42.7,29.2,42.7,29.3,42.6,29.3L42.6,29.3z M47.7,29.3C47.7,29.3,47.7,29.3,47.7,29.3c-0.1,0-0.1,0-0.1-0.1L47.4,29     c0-0.1,0-0.2,0.1-0.2l0.6-0.3c0,0,0.1,0,0.1,0c0,0,0,0,0,0c0,0,0.1,0,0.1,0.1l0.1,0.2c0,0.1,0,0.2-0.1,0.2L47.7,29.3     C47.8,29.3,47.7,29.3,47.7,29.3L47.7,29.3z M46.7,28.2C46.7,28.2,46.6,28.2,46.7,28.2L46.4,28c0,0-0.1-0.1-0.1-0.1     c0,0,0-0.1,0-0.1l0.4-0.6c0-0.1,0.1-0.1,0.1-0.1c0,0,0.1,0,0.1,0l0.2,0.1c0,0,0.1,0.1,0.1,0.1c0,0,0,0.1,0,0.1l-0.4,0.6     C46.8,28.1,46.8,28.2,46.7,28.2L46.7,28.2z M43.6,28.2C43.6,28.2,43.6,28.2,43.6,28.2c-0.1,0-0.1,0-0.1-0.1l-0.4-0.6     c0-0.1,0-0.2,0.1-0.2l0.2-0.1c0,0,0.1,0,0.1,0c0,0,0,0,0,0c0,0,0.1,0,0.1,0.1l0.4,0.6c0,0.1,0,0.2-0.1,0.2L43.6,28.2     C43.7,28.2,43.7,28.2,43.6,28.2L43.6,28.2z M45.3,27.7H45c-0.1,0-0.2-0.1-0.2-0.2v-0.7c0-0.1,0.1-0.2,0.2-0.2h0.2     c0.1,0,0.2,0.1,0.2,0.2v0.7C45.5,27.7,45.4,27.7,45.3,27.7L45.3,27.7z"/></g><g><path fill="rgb(63,128,211)" d="M45.4,30.3l-0.2-3.5L45,30.3c-0.1,0.1-0.1,0.1-0.1,0.2c0,0.2,0.1,0.3,0.3,0.3c0.2,0,0.3-0.1,0.3-0.3     C45.5,30.5,45.4,30.4,45.4,30.3z"/></g><g><path d="M51.7,69.3H39.4c-0.1,0-0.2-0.1-0.2-0.1c0-0.1-0.1-0.1-0.1-0.1l-0.8-0.7c0-0.1,0-0.1,0-0.2l0.8-0.7c0,0,0.1-0.1,0.1-0.1     c0-0.1,0.2-0.2,0.3-0.2h12.3c0.1,0,0.2,0.1,0.2,0.1c0,0.1,0.1,0.1,0.1,0.1l0.8,0.7c0,0.1,0,0.1,0,0.2L52,69c0,0-0.1,0.1-0.1,0.1     C51.9,69.2,51.7,69.3,51.7,69.3L51.7,69.3z"/></g></g></g></svg>