<svg xmlns="http://www.w3.org/2000/svg" xmlns:xlink="http://www.w3.org/1999/xlink" version="1.1" x="0px" y="0px" viewBox="0 0 70 87.5" enable-background="new 0 0 70 70" xml:space="preserve"><g><path fill="#000000" d="M10.071,51.827c4.29-5.211,13.351-15.56,17.656-20.765l4.394-5.319l-2.411-2.189l-2.375-2.228l-4.952,4.805   C17.54,30.836,7.946,40.693,3.093,45.385c-1.222,1.18-1.873,2.725-1.836,4.343c0.061,2.721,1.933,4.431,4.63,4.276   C7.504,53.911,8.992,53.139,10.071,51.827z"/><path fill="#000000" d="M54.051,21.591c-0.592-0.548-1.191-1.097-1.791-1.645c-0.668-0.612-1.335-1.232-1.996-1.844   c-0.228-0.214-0.451-0.295-0.76-0.285c-0.162,0.005-1.618,0.088-2.022,0.108l-0.125,0.004c-1.457,0.046-2.178-0.631-2.255-2.123   l-0.027-0.375c-0.025-0.331-0.043-0.654-0.039-0.986c0.008-0.435-0.157-0.768-0.552-1.146c-2.02-1.925-4.406-4.206-6.778-6.547   c-1.004-0.992-2.163-1.78-3.545-2.399c-3.057-1.391-5.979-1.806-8.939-1.285c-1.462,0.255-2.839,0.734-4.16,1.449   c-0.721,0.391-0.488,1.497,0.331,1.544c1.573,0.091,2.99,0.43,4.325,1.02c3.101,1.375,4.941,4.13,4.918,7.364   c-0.012,1.488-0.385,2.951-1.107,4.344c0.896,0.833,1.807,1.688,2.702,2.529c0.766,0.712,1.511,1.418,2.202,2.066   c0.864-0.86,1.065-1.028,1.231-1.137c1.04-0.652,2.244-0.764,3.239-0.302c0.322,0.152,0.638,0.37,0.934,0.648   c1.343,1.224,1.631,2.872,0.789,4.439c0.311,0.277,0.622,0.555,0.932,0.832c1.244,1.124,2.54,2.284,3.834,3.37   c0.189,0.156,0.347,0.247,0.45,0.244c0.052-0.002,0.212-0.036,0.528-0.297l6.149-6.559l1.621-1.849   C54.467,22.395,54.567,22.068,54.051,21.591z"/><path fill="#000000" d="M35.403,40.688c2.404,0,4.808-0.002,7.213,0.001c1.44,0.001,2.31,0.856,2.314,2.286   c0.006,2.081,0.003,4.162-0.002,6.243c-0.003,1.497-0.85,2.338-2.384,2.344c-2.95,0.01-5.899,0.004-8.849,0.005   c-1.798,0-3.596,0.003-5.394-0.003c-1.694-0.005-2.519-0.84-2.52-2.542c-0.002-1.96-0.003-3.92-0.001-5.879   c0.001-1.605,0.859-2.454,2.472-2.453C30.635,40.689,33.019,40.688,35.403,40.688z"/><path fill="#000000" d="M59.172,40.689c2.424,0,4.848-0.001,7.272,0.001c1.402,0.001,2.274,0.838,2.286,2.246   c0.019,2.121,0.018,4.242,0,6.363c-0.012,1.383-0.838,2.249-2.224,2.255c-4.888,0.022-9.777,0.021-14.665,0   c-1.386-0.006-2.214-0.874-2.225-2.254c-0.017-2.101-0.02-4.202-0.002-6.302c0.012-1.497,0.853-2.307,2.347-2.309   C54.364,40.687,56.768,40.689,59.172,40.689z"/><path fill="#000000" d="M47.666,67.147c-2.384,0-4.767,0.004-7.151-0.001c-1.561-0.003-2.381-0.832-2.382-2.398   c-0.002-2.04-0.004-4.08,0.001-6.12c0.003-1.441,0.849-2.307,2.287-2.309c4.888-0.008,9.776-0.007,14.664,0   c1.311,0.002,2.194,0.893,2.2,2.214c0.011,2.121,0.008,4.242,0.001,6.363c-0.005,1.357-0.876,2.243-2.228,2.249   C52.595,67.154,50.131,67.146,47.666,67.147z"/><path fill="#000000" d="M24.881,56.315c2.404,0,4.807-0.004,7.211,0.001c1.494,0.003,2.317,0.815,2.327,2.322   c0.014,2.06,0.012,4.12,0.003,6.181c-0.007,1.493-0.843,2.327-2.326,2.328c-4.807,0.004-9.615,0.004-14.422,0   c-1.577-0.001-2.379-0.809-2.381-2.386c-0.002-2.04-0.005-4.08,0.004-6.12c0.006-1.515,0.81-2.321,2.313-2.325   C20.034,56.311,22.457,56.315,24.881,56.315z"/></g></svg>
