<svg xmlns:x="http://ns.adobe.com/Extensibility/1.0/" xmlns:i="http://ns.adobe.com/AdobeIllustrator/10.0/" xmlns:graph="http://ns.adobe.com/Graphs/1.0/" xmlns="http://www.w3.org/2000/svg" xmlns:xlink="http://www.w3.org/1999/xlink" version="1.1" x="0px" y="0px" viewBox="0 0 64 80" enable-background="new 0 0 64 64" xml:space="preserve"><metadata><sfw xmlns="http://ns.adobe.com/SaveForWeb/1.0/"><slices/><sliceSourceBounds height="16384" width="16389" x="-8165" y="-8160" bottomLeftOrigin="true"/></sfw></metadata><g><g><path d="M22,24c0-1.104-0.896-2-2-2h-8c-1.104,0-2,0.896-2,2v4h12V24z"/><path d="M53.052,34.299c-0.59-0.364-1.326-0.396-1.946-0.088L38,40.764V36c0-0.693-0.359-1.337-0.948-1.701    c-0.59-0.364-1.326-0.396-1.946-0.088L22,40.764V32H10v24c0,1.104,0.896,2,2,2h40c1.104,0,2-0.896,2-2V36    C54,35.307,53.641,34.663,53.052,34.299z M26,50c0,1.104-0.896,2-2,2s-2-0.896-2-2v-2c0-1.104,0.896-2,2-2s2,0.896,2,2V50z M32,50    c0,1.104-0.896,2-2,2s-2-0.896-2-2v-2c0-1.104,0.896-2,2-2s2,0.896,2,2V50z M42,50c0,1.104-0.896,2-2,2s-2-0.896-2-2v-2    c0-1.104,0.896-2,2-2s2,0.896,2,2V50z M48,50c0,1.104-0.896,2-2,2s-2-0.896-2-2v-2c0-1.104,0.896-2,2-2s2,0.896,2,2V50z"/><path d="M16,18c1.104,0,2-0.896,2-2c0-3.309,2.691-6,6-6c3.308,0,6,2.692,6,6.001c0,3.309,2.691,6,6,6c3.309,0,6-2.691,6-6    c0-1.104-0.896-2-2-2s-2,0.896-2,2c0,1.103-0.897,2-2,2S34,17.103,34,16c0-5.514-4.486-10-10-10s-10,4.486-10,10    C14,17.104,14.896,18,16,18z"/></g></g></svg>
