<svg xmlns="http://www.w3.org/2000/svg" xmlns:xlink="http://www.w3.org/1999/xlink" version="1.1" x="0px" y="0px" viewBox="0 0 100 125" style="enable-background:new 0 0 100 100;" xml:space="preserve"><g><path d="M49.907,11.444c0.042,0.021,0.063,0.063,0.094,0.094c0.031,0.031,0.084,0.073,0.115,0.115l2.92,4.134l7.127-0.471   l4.458-8.268c0.042-0.105-0.031-0.23-0.073-0.283c-0.052-0.063-0.147-0.157-0.324-0.115c-3.6,0.806-5.704,0.126-7.922-0.596   c-1.151-0.377-2.344-0.754-3.851-0.973c-1.413-0.209-2.878-0.01-4.239,0.565l-2.124,0.91c-0.659,0.304-1.026,0.701-1.088,0.952   c0,0.031-0.01,0.063,0.021,0.136l4.877,3.788C49.907,11.434,49.907,11.434,49.907,11.444z"/><path d="M61.43,43.897c-0.188-0.209-0.283-0.46-0.283-0.722l-10.151,0.754c0,0,0,0-0.01,0l-7.954,0.596   c-0.147,0.01-0.283,0.01-0.419,0.01c-0.178,0-0.356-0.01-0.534-0.031l-1.716,2.334c-0.021,0.031-0.042,0.063-0.073,0.084   c-0.544,0.586-1.088,1.162-1.633,1.748c-6.028,5.306-9.586,13.699-9.586,22.501C29.071,85.424,38.49,95,52.524,95   c14.024,0,23.443-9.576,23.443-23.83C75.966,59.438,69.227,52.238,61.43,43.897z M58.866,75.827   c-0.733,1.695-2.48,3.108-3.799,3.705l-0.408,0.188v2.616c0,0.733-1.245,1.476-2.145,1.476c-0.89,0-2.145-0.743-2.145-1.476v-2.606   l-0.387-0.188c-1.497-0.733-3.391-2.365-3.977-4.207c-0.126-0.366,0.314-0.973,0.523-1.256c0.283-0.387,0.733-0.628,1.214-0.628   c0.638,0,1.193,0.387,1.381,0.963c0.492,1.465,1.863,2.438,3.412,2.438c0.209,0,0.523-0.01,0.837-0.094   c1.151-0.251,2.166-1.183,2.554-2.365c0.335-1.12,0.147-2.271-0.513-3.171c-0.68-0.921-1.758-1.476-2.899-1.476h-0.241   c-2.24,0-4.239-0.942-5.201-2.47c-1.392-2.198-1.727-4.5-0.931-6.478c0.712-1.748,2.48-3.192,3.82-3.778l0.408-0.178v-2.669   c0-0.701,1.266-1.455,2.145-1.455c0.89,0,2.145,0.753,2.145,1.455v2.658l0.398,0.188c0.869,0.408,1.664,1.015,2.344,1.695   c0.586,0.586,1.873,1.905,1.622,2.826c-0.094,0.324-0.324,0.638-0.523,0.921c-0.272,0.377-0.733,0.607-1.224,0.607   c-0.617,0-1.172-0.408-1.371-0.984c-0.492-1.476-1.863-2.459-3.412-2.459c-0.22,0-0.471,0-0.743,0.052   c-1.141,0.241-2.072,0.994-2.501,2.009c-0.481,1.12-0.387,2.25,0.283,3.276c0.419,0.638,1.277,1.402,2.983,1.402h0.22   c2.24,0,4.416,1.172,5.421,2.909C59.4,71.495,59.661,73.944,58.866,75.827z"/><path d="M24.037,26.734l1.183,15.792c0.052,0.754,0.701,1.35,1.465,1.35h0.105l10.246-0.764c0.649-0.042,1.193-0.523,1.329-1.162   c0.021-0.126,0.042-0.293,0.031-0.44L37.213,25.75c-0.031-0.356-0.167-0.67-0.398-0.9c-0.293-0.304-0.67-0.46-1.067-0.46   l-10.35,0.764C24.591,25.216,23.984,25.918,24.037,26.734z"/><path d="M39.808,21.93c-0.45,0.764-0.806,1.423-1.057,2.02c0.304,0.481,0.502,1.047,0.544,1.643l1.183,15.792   c0.01,0.115,0,0.23,0,0.345c0.408,0.303,0.869,0.513,1.35,0.617c0.345,0.084,0.68,0.115,1.047,0.084l2.041-0.146   c0.01,0,0.021-0.01,0.021-0.01l16.284-1.203c0.701-0.052,1.34-0.387,1.821-0.921c0.44-0.534,0.67-1.214,0.617-1.905   c-0.042-0.597-0.283-1.162-0.68-1.58c-0.366-0.387-0.366-0.973-0.031-1.371l0.01-0.01c0.021-0.031,0.031-0.063,0.063-0.094   c0.042-0.042,0.094-0.052,0.146-0.094c0.042-0.031,0.084-0.052,0.136-0.084c0.063-0.031,0.136-0.052,0.209-0.063   c0.042-0.01,0.073-0.031,0.115-0.042c0.01,0,0.115-0.01,0.136-0.01c0.701-0.052,1.329-0.377,1.79-0.911   c0.471-0.534,0.691-1.214,0.628-1.905c-0.042-0.638-0.293-1.204-0.733-1.643c0,0,0-0.01-0.01-0.021   c-0.073-0.084-0.146-0.178-0.199-0.283c0-0.01,0-0.021,0-0.021c-0.031-0.073-0.042-0.157-0.052-0.241   c-0.01-0.052-0.031-0.105-0.031-0.157c0-0.073,0.021-0.136,0.031-0.199c0.01-0.063,0.021-0.136,0.042-0.199   c0.021-0.052,0.063-0.094,0.084-0.136c0.042-0.073,0.084-0.147,0.136-0.209c0.01,0,0.01-0.01,0.021-0.01   c0.042-0.052,0.105-0.073,0.157-0.105c0.052-0.031,0.084-0.084,0.146-0.105c0.356-0.157,0.659-0.387,0.921-0.691   c0.45-0.523,0.68-1.214,0.628-1.905c-0.073-0.984-0.712-1.863-1.633-2.24c-0.01,0-0.021-0.01-0.042-0.021   c-0.105-0.052-0.209-0.115-0.304-0.199c0-0.01-0.01-0.021-0.01-0.021c-0.063-0.063-0.115-0.126-0.157-0.209   c-0.01-0.01-0.01-0.031-0.021-0.052c-0.031-0.063-0.052-0.136-0.073-0.209c-0.01-0.063-0.031-0.126-0.031-0.188   c-0.01-0.063,0-0.126,0.01-0.188c0.01-0.073,0.021-0.136,0.042-0.209c0-0.021,0-0.042,0.01-0.063   c0.021-0.042,0.052-0.073,0.073-0.105c0.031-0.063,0.073-0.126,0.115-0.178c0.052-0.063,0.105-0.105,0.167-0.146   c0.031-0.021,0.052-0.063,0.094-0.084c0.22-0.126,0.429-0.303,0.67-0.555c0.429-0.513,0.649-1.193,0.596-1.894   c-0.052-0.701-0.377-1.34-0.91-1.8c-0.534-0.46-1.214-0.691-1.915-0.638l-3.129,0.23l-8.289,0.523c-0.01,0-0.021,0-0.031,0   c-0.01,0-0.021,0-0.031,0c-0.042,0-0.084-0.021-0.126-0.031c-0.105-0.01-0.199-0.021-0.293-0.063   c-0.052-0.021-0.094-0.052-0.136-0.084c-0.094-0.052-0.167-0.126-0.241-0.209c-0.021-0.021-0.042-0.031-0.063-0.052l-2.899-4.102   c-1.622,0.272-3.066,1.151-4.04,2.491L39.808,21.93z"/></g></svg>
