<svg xmlns="http://www.w3.org/2000/svg" xmlns:xlink="http://www.w3.org/1999/xlink" version="1.1" x="0px" y="0px" viewBox="0 0 344 413.33125" style="enable-background:new 0 0 344 330.665;" xml:space="preserve"><g><path d="M72.717,138.209l-0.881,1.972h5.799c2.111,0,4.148,0.567,5.953,1.636l3.533-8.929h53.654l0.037,0.793h-0.168l-2.006,12.017   H93.422c0.689,0.231,1.398,0.462,2.143,0.695c2.793,0.873,6.16,1.81,9.936,2.638h32.582l-0.283,1.7   c3.045-0.425,5.998-1.023,8.838-1.809c1.049-0.291,2.129-0.439,3.213-0.439c1.223,0,2.412,0.196,3.541,0.548h55.195l2.754,24.063   h-62.51c-6.959,1.571-14.301,2.379-21.896,2.381c-8.465-0.021-16.441-0.994-23.547-2.381H89.363v5.208h43.832l-4.773,28.603   l0.064,0.948H89.363v12.089h234.281l-42.051-94.062H82.891C80.838,130.957,77.256,135.258,72.717,138.209z M221.752,149.03h57.35   l9.523,24.063H225.77L221.752,149.03z M215.164,207.852H144.66l-0.043-0.948l3.271-28.603h64.047l3.273,28.603L215.164,207.852z    M301.854,207.852H231.35l0.064-0.948l-4.775-28.603h64.047l11.32,28.603L301.854,207.852z M219.057,132.888h53.654h0.002   l5.068,12.81h-56.586l-2.006-12.017h-0.17L219.057,132.888z M206.74,132.888l1.465,12.81h-56.586l1.467-12.81H206.74z"/><polygon points="192.662,227.619 167.164,227.619 167.164,277.03 130.58,277.03 130.58,288.364 229.246,288.364 229.246,277.03    192.662,277.03  "/><path d="M85.363,164.085c9.691,3.382,24.617,7.348,41.57,7.39c8.02-0.002,16.502-0.91,25.047-3.284   c4.258-1.181,6.75-5.589,5.57-9.847c-1.18-4.257-5.59-6.751-9.846-5.568c-6.928,1.92-13.963,2.699-20.771,2.699   c-12.434,0.007-24.098-2.616-32.563-5.266c-4.232-1.322-7.664-2.646-10.002-3.619c-0.953-0.398-1.713-0.732-2.281-0.99   c-1.26-0.891-2.793-1.419-4.453-1.419H39c-0.139,0-0.275,0.014-0.412,0.02c-1.809,0.028-4.785,0.427-8.168,2.132   c-5.379,2.667-11.18,8.503-15.238,18.84c-4.106,10.381-6.863,25.387-6.877,48.046c0,5.857,0.189,12.227,0.598,19.162   c0.25,4.249,3.775,7.53,7.978,7.53c0.158,0,0.316-0.005,0.477-0.014c4.41-0.26,7.777-4.045,7.518-8.455   c-0.393-6.653-0.57-12.711-0.568-18.224c-0.035-24.22,3.496-37.823,6.965-44.923v150.006c0,6.83,5.537,12.363,12.363,12.363   c6.828,0,12.365-5.533,12.365-12.363V228.03h4.635v90.271c0,6.83,5.537,12.363,12.363,12.363c6.828,0,12.365-5.533,12.365-12.363   V164.085z"/><circle cx="58.316" cy="115.981" r="22.5"/><path d="M225.189,54.177c22.359,4.394,23.248,8.579,4.258,21.089c22.211-4.896,24.541-1.469,11.609,17.221   c18.689-12.933,22.117-10.602,17.221,11.61c12.51-18.991,16.695-18.102,21.09,4.258c4.393-22.359,8.578-23.249,21.088-4.258   c-4.896-22.212-1.469-24.543,17.221-11.61c-12.932-18.689-10.602-22.117,11.609-17.221c-18.99-12.51-18.1-16.695,4.258-21.089   c-22.357-4.393-23.248-8.578-4.258-21.088c-22.211,4.896-24.541,1.469-11.609-17.222C298.986,28.8,295.559,26.47,300.455,4.258   C287.945,23.249,283.76,22.359,279.367,0c-4.395,22.359-8.58,23.249-21.09,4.258c4.897,22.212,1.469,24.542-17.221,11.609   c12.932,18.69,10.602,22.118-11.609,17.222C248.437,45.599,247.549,49.783,225.189,54.177z M279.367,36.177c9.939,0,18,8.06,18,18   c0,9.942-8.061,18-18,18c-9.941,0-18-8.058-18-18C261.367,44.236,269.426,36.177,279.367,36.177z"/><rect x="97" y="251.03" width="58" height="6"/><rect y="251.03" width="20" height="6"/><rect x="201" y="251.03" width="143" height="6"/></g></svg>
