<svg xmlns="http://www.w3.org/2000/svg" viewBox="0 0 64 80" x="0px" y="0px"><title>Green planet</title><g data-name="Layer 2"><path d="M14.09,43.84A18,18,0,1,0,33.84,24.09,18.06,18.06,0,0,0,14.09,43.84ZM34,42.93a2.25,2.25,0,0,1,.66-1.59l2.43-2.43A3.13,3.13,0,0,1,39.3,38h2a1.62,1.62,0,0,0,1.15-.48l.91-.91a1,1,0,0,1,1.67.34,13.92,13.92,0,0,1-3.8,15.52,1.43,1.43,0,0,1-2.32-.73l-.72-2.87a2,2,0,0,0-1-1.28l-2-1a2.25,2.25,0,0,1-1.24-2ZM30.73,50.5a1.5,1.5,0,0,1-1.5,1.5h-1a1.5,1.5,0,0,1-1.5-1.5v-1a1.5,1.5,0,0,1,1.5-1.5h1a1.5,1.5,0,0,1,1.5,1.5Zm-.48-22.39A1.58,1.58,0,0,1,32,29.69v1.65a1.59,1.59,0,0,1-.47,1.12l-6.65,6.65A3,3,0,0,0,24,41.25V43a2.43,2.43,0,0,1-.71,1.72l-2.12,2.12a1.52,1.52,0,0,1-2.51-.6A13.84,13.84,0,0,1,18,42,14,14,0,0,1,30.25,28.11Z"/><path d="M32,22c.44,0,.88,0,1.32.07V17.39a2.84,2.84,0,0,1,2.84-2.84,9,9,0,0,0,9-9V4.7a.7.7,0,0,0-.7-.7H41a9,9,0,0,0-8.69,6.62.33.33,0,0,1-.64,0A9,9,0,0,0,23,4H19.53a.7.7,0,0,0-.7.7v.83a9,9,0,0,0,9,9,2.84,2.84,0,0,1,2.84,2.84v4.68C31.12,22,31.56,22,32,22Z"/></g></svg>
